<svg width="16" height="14" viewBox="0 0 16 14" fill="none" xmlns="http://www.w3.org/2000/svg">
<path d="M15.8045 7.49522L9.80468 13.7949C9.67959 13.9262 9.50993 14 9.33303 14C9.15612 14 8.98647 13.9262 8.86138 13.7949C8.73629 13.6635 8.66601 13.4854 8.66601 13.2996C8.66601 13.1139 8.73629 12.9358 8.86138 12.8044L13.7237 7.69996H0.666645C0.48984 7.69996 0.320276 7.62621 0.195256 7.49495C0.0702357 7.36368 0 7.18564 0 7C0 6.81436 0.0702357 6.63632 0.195256 6.50505C0.320276 6.37378 0.48984 6.30004 0.666645 6.30004H13.7237L8.86138 1.19557C8.73629 1.06423 8.66601 0.886095 8.66601 0.70035C8.66601 0.514606 8.73629 0.336469 8.86138 0.205128C8.98647 0.0737866 9.15612 0 9.33303 0C9.50993 0 9.67959 0.0737866 9.80468 0.205128L15.8045 6.50478C15.8665 6.56978 15.9156 6.64698 15.9492 6.73196C15.9827 6.81693 16 6.90801 16 7C16 7.09198 15.9827 7.18307 15.9492 7.26804C15.9156 7.35302 15.8665 7.43021 15.8045 7.49522Z" fill="#BB743A"/>
</svg>
