<svg width="588" height="466" viewBox="0 0 588 466" fill="none" xmlns="http://www.w3.org/2000/svg">
<path opacity="0.2" d="M363.197 491C317.56 491 305.2 454.841 305.2 431.052C305.2 370.153 338.477 293.078 381.261 214.099C343.231 263.579 305.2 309.254 268.12 349.219C190.157 434.859 119.8 491 68.4591 491C38.0346 491 0.00390369 466.26 0.00390369 427.246C-0.946863 346.364 172.093 145.587 172.093 77.0756C172.093 65.657 168.29 56.1415 151.176 56.1415C133.111 56.1415 99.8344 76.124 60.853 112.283L52.296 102.767C131.21 29.4981 186.354 0 221.532 0C259.563 0 272.874 26.6434 272.874 49.4806C272.874 140.829 108.391 330.188 108.391 400.603C108.391 415.828 117.899 429.149 137.865 429.149C165.437 429.149 205.369 397.748 257.662 341.607C312.806 283.562 379.36 197.922 444.012 106.574C459.224 79.9302 475.387 54.2384 489.649 29.498C494.402 20.9341 501.058 16.1763 511.516 16.1763L572.365 17.1279C587.577 17.1279 592.331 26.6434 583.774 39.9651C542.891 106.574 498.205 177.94 463.978 243.597C432.603 307.351 406.932 361.589 406.932 402.506C406.932 419.634 415.489 430.101 431.652 430.101C452.569 430.101 482.993 409.167 515.319 378.717L523.876 388.233C444.963 461.502 392.67 491 363.197 491Z" fill="white"/>
</svg>
