<svg width="40" height="40" viewBox="0 0 40 40" fill="none" xmlns="http://www.w3.org/2000/svg">
<rect width="40" height="40" rx="20" fill="#BB743A"/>
<g clip-path="url(#clip0_42_509)">
<path d="M16.3796 26.5625H13.6569V17.7998H16.3796V26.5625ZM15.0168 16.6045C14.1463 16.6045 13.44 15.8838 13.44 15.0137C13.44 14.1436 14.1463 13.4375 15.0168 13.4375C15.8872 13.4375 16.5935 14.1436 16.5935 15.0137C16.5935 15.8838 15.8872 16.6045 15.0168 16.6045ZM26.57 26.5625H23.8531V22.2969C23.8531 21.2803 23.8326 19.9766 22.4376 19.9766C21.022 19.9766 20.8051 21.0811 20.8051 22.2236V26.5625H18.0853V17.7998H20.6967V18.9951H20.7348C21.0982 18.3066 21.9862 17.5801 23.3109 17.5801C26.0659 17.5801 26.5729 19.3936 26.5729 21.749V26.5625H26.57Z" fill="#231F20"/>
</g>
<defs>
<clipPath id="clip0_42_509">
<rect width="13.13" height="15" fill="white" transform="translate(13.44 12.5)"/>
</clipPath>
</defs>
</svg>
