<svg width="143" height="76" viewBox="0 0 143 76" fill="none" xmlns="http://www.w3.org/2000/svg">
<g clip-path="url(#clip0_42_519)">
<path d="M35.3496 45.2763C36.208 44.9917 36.3901 44.2157 36.3901 42.3532V30.8161C36.3901 28.9536 36.208 28.1776 35.3496 27.893V27.5309H40.8126C46.7438 27.5309 48.0965 30.454 48.0965 32.5493C48.0965 35.7828 45.7553 38.5248 40.4223 38.5248H39.1476V42.3532C39.1476 44.2157 39.3297 44.9917 40.1882 45.2763V45.6384H35.3496V45.2763ZM40.2923 38.1109C43.7001 38.1109 45.1569 36.1449 45.1569 33.2218C45.1569 30.9972 44.0643 27.9448 39.9541 27.9448C39.6939 27.9448 39.3297 27.9706 39.1476 27.9965V38.1109H40.2923Z" fill="#231F20"/>
<path d="M49.9435 45.2763C50.802 44.9917 50.9841 44.2157 50.9841 42.3532V30.8161C50.9841 28.9536 50.802 28.1776 49.9435 27.893V27.5309H62.4304L62.7165 31.1783L62.3783 31.2559C61.3378 28.7208 59.6989 27.9448 56.7853 27.9448H53.7416V35.7052H56.239C59.4127 35.7052 60.3232 35.0843 60.7394 33.7392H61.1036V38.085H60.7394C60.3232 36.7399 59.4127 36.119 56.239 36.119H53.7416V43.9312C53.7416 44.7589 54.2099 45.2246 55.0423 45.2246H57.5397C60.1671 45.2246 61.9621 44.4485 62.9506 41.81L63.2888 41.8617L63.1067 45.6384H49.9435V45.2763Z" fill="#231F20"/>
<path d="M75.2553 41.3961C73.6945 37.6194 73.5644 36.3519 71.2752 36.3519H69.7403V42.3532C69.7403 44.2157 69.9224 44.9917 70.7809 45.2763V45.6384H65.9423V45.2763C66.8007 44.9917 66.9828 44.2157 66.9828 42.3532V30.8161C66.9828 28.9536 66.8007 28.1776 65.9423 27.893V27.5309H71.4052C77.0763 27.5309 78.247 29.5744 78.247 31.6698C78.247 34.0496 76.6081 35.8345 73.1482 36.2484C76.0878 36.5847 76.6601 37.8005 78.0389 41.2409C79.4176 44.6813 79.7038 45.3022 80.6663 45.3022C80.7964 45.3022 80.9264 45.3022 81.0565 45.2763V45.6384C80.4582 45.7936 79.6257 45.8195 79.1835 45.8195C77.0243 45.8195 76.504 44.4226 75.2553 41.3961ZM71.4052 35.938C74.3709 35.938 75.4895 34.2824 75.4895 32.2906C75.4895 30.1953 74.1367 27.9448 70.885 27.9448C70.5208 27.9448 70.1305 27.9706 69.7403 28.0224V35.938H71.4052Z" fill="#231F20"/>
<path d="M82.6155 44.0605L82.5114 40.1803L82.8496 40.1286C83.9422 43.0775 86.2575 45.3539 89.7174 45.3539C91.5124 45.3539 93.1773 44.2157 93.1773 42.0945C93.1773 39.5595 89.8214 38.3695 87.7403 37.5418C85.0608 36.4294 82.8236 35.5499 82.8236 32.5492C82.8236 29.3416 85.425 27.3498 89.5093 27.3498C91.4343 27.3498 93.1512 27.7637 94.504 28.4362L94.608 31.7991L94.3219 31.9025C93.2553 29.2382 91.0441 27.7895 88.5207 27.7895C86.4396 27.7895 84.8007 29.0053 84.8007 31.0489C84.8007 33.3512 87.4281 34.2824 89.5093 35.1102C92.1627 36.119 95.3104 37.2831 95.3104 40.3872C95.3104 43.9311 92.0326 45.8971 89.041 45.8971C86.3615 45.8971 83.9422 45.0435 82.6155 44.0605Z" fill="#231F20"/>
<path d="M97.8189 36.5071C97.8189 31.3852 101.617 27.3239 107.132 27.3239C111.528 27.3239 116.419 30.3246 116.419 36.6623C116.419 42.9999 111.502 45.8971 107.132 45.8971C102.762 45.8971 97.8189 42.9999 97.8189 36.5071ZM108.615 45.0952C112.595 45.0952 114.026 42.1204 113.792 38.7058C113.401 33.196 110.28 27.9965 105.779 27.9965C102.241 27.9965 100.238 30.7385 100.524 34.9291C100.889 40.1027 104.192 45.0952 108.615 45.0952Z" fill="#231F20"/>
<path d="M120.243 30.5316V40.8011C120.243 43.957 120.867 44.8624 122.22 45.2763V45.6384H118.734V45.2763C119.593 44.9917 119.775 44.2157 119.775 42.3532V30.8161C119.775 28.9536 119.541 28.1776 118.422 27.893V27.5309H121.362L132.288 41.1374V32.3682C132.288 29.2123 131.663 28.3069 130.311 27.893V27.5309H133.823V27.893C132.964 28.1776 132.782 28.9536 132.782 30.8161V45.8454H132.444L120.243 30.5316Z" fill="#231F20"/>
<path d="M35.4518 17.7454C36.3102 17.4609 36.4923 16.6848 36.4923 14.8223V0.465623H35.6859C33.3706 0.465623 32.2 1.11232 31.2375 3.18176L30.9253 3.13002L31.0814 0H44.6348L44.7909 3.13002L44.4787 3.18176C43.5162 1.11232 42.3455 0.465623 40.0303 0.465623H39.2758V14.8223C39.2758 16.6848 39.4579 17.4609 40.3164 17.7454V18.1076H35.4518V17.7454Z" fill="#231F20"/>
<path d="M47.0281 17.7454C47.8865 17.4609 48.0686 16.6848 48.0686 14.8223V3.28523C48.0686 1.42274 47.8865 0.646698 47.0281 0.362151V0H51.8667V0.362151C51.0082 0.646698 50.8261 1.42274 50.8261 3.28523V8.27774H59.8791V3.28523C59.8791 1.42274 59.697 0.646698 58.8385 0.362151V0H63.6772V0.362151C62.8187 0.646698 62.6366 1.42274 62.6366 3.28523V14.8223C62.6366 16.6848 62.8187 17.4609 63.6772 17.7454V18.1076H58.8385V17.7454C59.697 17.4609 59.8791 16.6848 59.8791 14.8223V8.74336H50.8261V14.8223C50.8261 16.6848 51.0082 17.4609 51.8667 17.7454V18.1076H47.0281V17.7454Z" fill="#231F20"/>
<path d="M66.4848 17.7454C67.3433 17.4609 67.5254 16.6848 67.5254 14.8223V3.28523C67.5254 1.42274 67.3433 0.646698 66.4848 0.362151V0H78.9716L79.2578 3.64738L78.9196 3.72498C77.8791 1.18992 76.2402 0.413887 73.3266 0.413887H70.2829V8.17427H72.7803C75.954 8.17427 76.8645 7.55344 77.2807 6.2083H77.6449V10.5541H77.2807C76.8645 9.20899 75.954 8.58815 72.7803 8.58815H70.2829V16.4003C70.2829 17.228 70.7512 17.6937 71.5836 17.6937H74.081C76.7084 17.6937 78.5034 16.9176 79.4919 14.2791L79.8301 14.3308L79.648 18.1076H66.4848V17.7454Z" fill="#231F20"/>
<path d="M35.3496 72.5337C36.208 72.2491 36.3901 71.4731 36.3901 69.6106V58.0735C36.3901 56.211 36.208 55.435 35.3496 55.1504V54.7883H40.8126C46.7438 54.7883 48.0965 57.7113 48.0965 59.8066C48.0965 63.0401 45.7553 65.7821 40.4223 65.7821H39.1476V69.6106C39.1476 71.4731 39.3297 72.2491 40.1882 72.5337V72.8958H35.3496V72.5337ZM40.2923 65.3683C43.7001 65.3683 45.1569 63.4023 45.1569 60.4792C45.1569 58.2546 44.0643 55.2022 39.9541 55.2022C39.6939 55.2022 39.3297 55.228 39.1476 55.2539V65.3683H40.2923Z" fill="#231F20"/>
<path d="M59.383 68.6535C57.8221 64.8768 57.692 63.6092 55.4028 63.6092H53.868V69.6106C53.868 71.4731 54.0501 72.2491 54.9085 72.5337V72.8958H50.0699V72.5337C50.9284 72.2491 51.1105 71.4731 51.1105 69.6106V58.0735C51.1105 56.211 50.9284 55.435 50.0699 55.1504V54.7883H55.5329C61.204 54.7883 62.3746 56.8318 62.3746 58.9271C62.3746 61.307 60.7357 63.0919 57.2758 63.5058C60.2154 63.8421 60.7877 65.0578 62.1665 68.4983C63.5452 71.9387 63.8314 72.5595 64.7939 72.5595C64.924 72.5595 65.0541 72.5595 65.1841 72.5337V72.8958C64.5858 73.051 63.7533 73.0769 63.3111 73.0769C61.1519 73.0769 60.6316 71.68 59.383 68.6535ZM55.5329 63.1953C58.4985 63.1953 59.6171 61.5398 59.6171 59.548C59.6171 57.4527 58.2644 55.2022 55.0126 55.2022C54.6484 55.2022 54.2582 55.228 53.868 55.2798V63.1953H55.5329Z" fill="#231F20"/>
<path d="M65.5223 63.7645C65.5223 58.6426 69.3204 54.5814 74.8354 54.5814C79.2318 54.5814 84.1225 57.582 84.1225 63.9197C84.1225 70.2573 79.2058 73.1545 74.8354 73.1545C70.465 73.1545 65.5223 70.2573 65.5223 63.7645ZM76.3182 72.3526C80.2984 72.3526 81.7291 69.3778 81.495 65.9633C81.1048 60.4534 77.9831 55.2539 73.4826 55.2539C69.9447 55.2539 67.9416 57.9959 68.2278 62.1865C68.592 67.3601 71.8958 72.3526 76.3182 72.3526Z" fill="#231F20"/>
<path d="M82.2661 75.3015C82.2661 74.6807 82.8645 73.9047 83.905 73.9047C84.6074 73.9047 85.1797 74.0599 86.8186 74.3962C87.3129 74.0599 87.9633 73.4908 87.9633 71.0075V58.0735C87.9633 56.211 87.7812 55.435 86.9227 55.1504V54.7883H91.7353V55.1504C90.8768 55.435 90.6947 56.211 90.6947 58.0735V66.6099C90.6947 72.0422 87.2609 76 83.5148 76C82.7084 76 82.2661 75.9224 82.2661 75.3015Z" fill="#231F20"/>
<path d="M94.5449 72.5337C95.4033 72.2491 95.5854 71.4731 95.5854 69.6106V58.0735C95.5854 56.211 95.4033 55.435 94.5449 55.1504V54.7883H107.032L107.318 58.4357L106.98 58.5133C105.939 55.9782 104.3 55.2022 101.387 55.2022H98.3429V62.9625H100.84C104.014 62.9625 104.925 62.3417 105.341 60.9966H105.705V65.3424H105.341C104.925 63.9973 104.014 63.3764 100.84 63.3764H98.3429V71.1885C98.3429 72.0163 98.8112 72.4819 99.6436 72.4819H102.141C104.768 72.4819 106.563 71.7059 107.552 69.0674L107.89 69.1191L107.708 72.8958H94.5449V72.5337Z" fill="#231F20"/>
<path d="M109.943 64.1525C109.943 58.9272 114.106 54.6072 120.479 54.6072C122.404 54.6072 125.084 54.9694 126.436 55.8747L126.54 59.2893L126.228 59.3669C125.162 56.7025 122.482 55.0987 119.803 55.0987C115.64 55.0987 112.701 57.8407 112.701 62.9884C112.701 68.1361 115.667 72.6113 120.739 72.6113C123.653 72.6113 125.656 70.8523 126.592 68.162L126.931 68.2137L126.514 71.9129C125.136 72.5337 123.159 73.1545 119.985 73.1545C113.767 73.1545 109.943 69.9469 109.943 64.1525Z" fill="#231F20"/>
<path d="M133.661 72.5337C134.519 72.2491 134.701 71.4731 134.701 69.6106V55.2539H133.895C131.58 55.2539 130.409 55.9006 129.447 57.97L129.134 57.9183L129.291 54.7883H142.844L143 57.9183L142.688 57.97C141.725 55.9006 140.555 55.2539 138.239 55.2539H137.485V69.6106C137.485 71.4731 137.667 72.2491 138.526 72.5337V72.8958H133.661V72.5337Z" fill="#231F20"/>
<path d="M0.0501721 45.1968L6.57973 33.1941C9.02507 28.6672 13.9938 24.787 19.4307 24.787C20.7315 24.787 21.668 24.9164 21.668 25.3302C21.668 25.8993 20.7575 27.0375 19.4307 27.0375C18.4942 27.0375 17.4016 26.7012 14.9303 26.0545C12.563 26.8565 11.2103 28.2792 9.38927 31.7196L4.62867 40.7217C5.92938 39.0403 7.33415 37.4882 8.7129 36.1689C11.0021 33.9443 13.1613 32.5215 14.41 32.5215C15.3205 32.5215 15.7367 33.2458 15.7367 33.9443C15.7367 36.2724 11.1842 41.9633 11.1842 43.7482C11.1842 44.188 11.4444 44.4467 11.9126 44.4467C12.4589 44.4467 13.2654 43.9552 14.358 42.9722L14.5661 43.2309C12.6671 44.964 11.1322 45.8694 10.3518 45.8694C9.23318 45.8694 8.92101 44.9899 8.92101 44.369C8.92101 41.7047 13.4995 36.3759 13.4995 34.591C13.4995 34.1771 13.2914 33.8667 12.7971 33.8667C11.8606 33.8667 10.5599 34.8755 8.92101 36.4276C7.12603 38.109 5.14895 40.4113 3.5881 42.7135L2.18334 45.352C2.07928 45.559 1.92319 45.6624 1.71508 45.6624H0.336328C0.050172 45.6624 -0.0798989 45.4555 0.0501721 45.1968Z" fill="#231F20"/>
<path d="M25.2059 44.3432C25.2059 42.7394 26.2985 40.3595 27.5992 38.0314C26.4546 39.5059 25.2839 40.8769 24.1913 42.0409C22.0322 44.3432 20.1071 45.8694 18.7804 45.8694C17.8959 45.8694 17.0114 45.2227 17.0114 44.188C17.0114 42.0409 21.668 36.5828 21.668 34.591C21.668 34.1771 21.4859 33.9443 21.0436 33.9443C20.4973 33.9443 19.6649 34.3582 18.5202 35.4188L18.3121 35.1601C20.1851 33.4528 21.746 32.5215 22.6305 32.5215C23.645 32.5215 23.9832 33.2717 23.9832 33.8667C23.9832 36.1948 19.3527 41.834 19.3527 43.6448C19.3527 44.0586 19.5608 44.4725 20.2112 44.4725C21.0956 44.4725 22.3183 43.4896 23.9312 41.8081C25.5441 40.1267 27.4171 37.8503 29.108 35.4964C29.6023 34.6945 30.0705 33.9184 30.4868 33.2458C30.6168 33.0648 30.7469 32.9613 30.955 32.9613L32.3078 32.9872C32.6199 32.9872 32.724 33.1941 32.5419 33.4528C31.4753 35.1342 30.2526 37.1002 29.2121 39.0661C28.0935 41.1873 27.4951 42.7653 27.4951 43.6448C27.4951 44.1363 27.7293 44.4208 28.1975 44.4208C28.7438 44.4208 29.5242 43.9552 30.5908 42.9722L30.7989 43.2309C28.9519 44.964 27.3911 45.8694 26.6106 45.8694C25.492 45.8694 25.2059 44.964 25.2059 44.3432Z" fill="#231F20"/>
</g>
<defs>
<clipPath id="clip0_42_519">
<rect width="143" height="76" fill="white"/>
</clipPath>
</defs>
</svg>
