<svg xmlns="http://www.w3.org/2000/svg" width="27" height="27" viewBox="0 0 27 27" fill="none">
<path d="M13.5 0C10.83 0 8.21987 0.791761 5.99981 2.27516C3.77974 3.75856 2.04942 5.86697 1.02763 8.33377C0.00584936 10.8006 -0.261496 13.515 0.259405 16.1337C0.780305 18.7525 2.06606 21.1579 3.95406 23.0459C5.84207 24.934 8.24754 26.2197 10.8663 26.7406C13.485 27.2615 16.1994 26.9942 18.6662 25.9724C21.133 24.9506 23.2414 23.2203 24.7248 21.0002C26.2082 18.7801 27 16.17 27 13.5C26.996 9.9208 25.5724 6.48932 23.0416 3.95844C20.5107 1.42756 17.0792 0.00397028 13.5 0ZM13.5 24C11.4233 24 9.39324 23.3842 7.66652 22.2304C5.9398 21.0767 4.59399 19.4368 3.79927 17.5182C3.00455 15.5996 2.79662 13.4884 3.20176 11.4516C3.60691 9.41475 4.60693 7.54383 6.07538 6.07538C7.54384 4.60693 9.41476 3.6069 11.4516 3.20175C13.4884 2.79661 15.5996 3.00454 17.5182 3.79926C19.4368 4.59399 21.0767 5.9398 22.2304 7.66651C23.3842 9.39323 24 11.4233 24 13.5C23.997 16.2839 22.8898 18.9528 20.9213 20.9213C18.9529 22.8898 16.2839 23.997 13.5 24ZM20 13.5C20 13.8978 19.842 14.2794 19.5607 14.5607C19.2794 14.842 18.8978 15 18.5 15H15V18.5C15 18.8978 14.842 19.2794 14.5607 19.5607C14.2794 19.842 13.8978 20 13.5 20C13.1022 20 12.7206 19.842 12.4393 19.5607C12.158 19.2794 12 18.8978 12 18.5V15H8.50001C8.10218 15 7.72065 14.842 7.43935 14.5607C7.15804 14.2794 7.00001 13.8978 7.00001 13.5C7.00001 13.1022 7.15804 12.7206 7.43935 12.4393C7.72065 12.158 8.10218 12 8.50001 12H12V8.5C12 8.10218 12.158 7.72064 12.4393 7.43934C12.7206 7.15804 13.1022 7 13.5 7C13.8978 7 14.2794 7.15804 14.5607 7.43934C14.842 7.72064 15 8.10218 15 8.5V12H18.5C18.8978 12 19.2794 12.158 19.5607 12.4393C19.842 12.7206 20 13.1022 20 13.5Z" fill="#809EA4"/>
</svg>