<svg width="466" height="166" viewBox="0 0 466 166" fill="none" xmlns="http://www.w3.org/2000/svg">
<g clip-path="url(#clip0_114_3)">
<path d="M383.9 164.5C428.966 164.5 465.5 127.966 465.5 82.9C465.5 37.8335 428.966 1.29999 383.9 1.29999C338.834 1.29999 302.3 37.8335 302.3 82.9C302.3 127.966 338.834 164.5 383.9 164.5Z" fill="#556E7C"/>
<path fill-rule="evenodd" clip-rule="evenodd" d="M400.4 61.8H417.9L415.3 69.8H397.4L380.5 117.9L399.4 112.5L403.4 116L368.1 133.6L355.5 126.8L377.9 69.8H363.4V63L379.9 61.8L386.7 43.2L411.4 36.6L400.1 61.8" fill="white"/>
<path d="M209.9 0V19.4H193.4V0H184.4V46.5H193.4V27.1H209.9V46.5H218.9V0H209.9Z" fill="#556E7C"/>
<path d="M140.6 0V7.9H152.7V46.5H162.2V7.9H174.3V0H140.6Z" fill="#556E7C"/>
<path d="M258.2 9V0H232.8V46.5H258.2V37.5H241.7V25.5H255.2V18H241.7V9H258.2Z" fill="#556E7C"/>
<path d="M172.5 99.1C170.4 97.1 168.8 94.7 167.5 91.9C166.3 89.1 165.7 86 165.7 82.7C165.7 79.3 166.3 76.2 167.4 73.2C168.5 70.2 170.1 67.6 172.2 65.3C174.3 63 176.8 61.2 179.8 59.9C182.8 58.6 186.1 57.9 189.8 57.9C196.2 57.9 201.5 59.9 205.9 63.9C210.6 68.2 212.9 74 212.9 81.3C212.9 88.4 210.5 94.2 205.7 98.9C202.8 101.8 199.2 103.8 195.2 104.8C193.2 105.3 190.8 105.6 188.2 105.6C185.6 105.6 182.8 105 179.9 103.9C177.1 102.6 174.6 101.1 172.5 99.1ZM175.4 82.1C175.4 84.2 175.8 86.2 176.5 88C177.2 89.8 178.2 91.3 179.5 92.6C182.2 95.3 185.7 96.7 189.9 96.7C193.9 96.7 197.2 95.4 199.6 92.8C202.1 90.1 203.3 86.4 203.3 81.8C203.3 77.4 202.1 73.8 199.7 70.8C197.1 67.7 193.6 66.1 189.2 66.1C184.9 66.1 181.5 67.7 178.9 70.9C176.5 73.9 175.4 77.6 175.4 82.1Z" fill="#556E7C"/>
<path d="M0 57.9V65.8H12.1V104.4H21.7V65.8H33.7V57.9H0Z" fill="#556E7C"/>
<path d="M144.3 95.2V57.9H134.5V104.4H156.3V95.2H144.3Z" fill="#556E7C"/>
<path d="M248.5 84.6C249 84.3 249.5 84.1 250 83.8C254 81.2 256.2 76.9 256.2 73.2C256.2 68.2 255.1 64.6 251.8 61.6C248.5 58.7 241.7 57.8 235.4 57.8C232 57.8 227.6 58 224.6 58.4V104.4H233.6V86.8C233.6 86.9 235.3 86.9 235.9 86.9C237.2 86.9 238.5 86.9 239.7 86.8L247.6 104.5H258.2L248.5 84.6ZM244.8 77.9C244 78.5 242.9 78.9 241.9 79.2C240.9 79.5 239.4 79.6 237.8 79.6C236.3 79.6 234.6 79.5 233.6 79.4V66.2C234.6 66.1 236 66 237.2 66C240.3 66 242.7 66.4 244.3 67.3C246 68.3 246.9 70 246.9 72.5C247 75 246.4 76.6 244.8 77.9Z" fill="#556E7C"/>
<path d="M70.9 104.5H81.1L64.7 58H63.8H55.4L38.9 104.4H49L52.2 93.9H67.6L70.9 104.5ZM55 86.5L60.1 70.4L65.2 86.5H55Z" fill="#556E7C"/>
<path d="M123.4 58.1H113.3L103.8 77.6L94.5 58.1H84.5L99.4 88.4V104.5H108.4V88.4L123.4 58.1Z" fill="#556E7C"/>
<path d="M125.6 159.5C123.5 157.5 121.9 155.1 120.6 152.3C119.4 149.5 118.8 146.4 118.8 143.1C118.8 139.8 119.4 136.6 120.5 133.6C121.6 130.6 123.2 128 125.3 125.7C127.4 123.4 129.9 121.6 132.9 120.3C135.9 119 139.2 118.3 142.9 118.3C149.3 118.3 154.6 120.3 159 124.3C163.7 128.6 166 134.4 166 141.7C166 148.8 163.6 154.6 158.8 159.3C155.9 162.2 152.3 164.2 148.3 165.2C146.3 165.7 143.9 166 141.3 166C138.7 166 135.9 165.4 133 164.3C130.2 163.1 127.7 161.5 125.6 159.5ZM128.5 142.6C128.5 144.7 128.9 146.7 129.6 148.5C130.3 150.3 131.3 151.8 132.6 153.1C135.3 155.8 138.8 157.2 143 157.2C147 157.2 150.3 155.9 152.7 153.3C155.2 150.6 156.4 146.9 156.4 142.3C156.4 137.9 155.2 134.3 152.8 131.3C150.2 128.2 146.7 126.6 142.3 126.6C138 126.6 134.6 128.2 132 131.4C129.6 134.3 128.5 138.1 128.5 142.6Z" fill="#556E7C"/>
<path d="M63.9 152.9C63.9 156.1 62.3 159 58.9 161.4C55.4 163.9 51.2 165.3 46.1 165.3C39.1 165.3 33.8 162.8 29.6 158.4C25.6 154.2 23.4 149 23.4 142.5C23.4 135.6 25.7 129.8 29.8 125.2C34.4 120 40.3 117.6 48.3 117.6C53.7 117.6 57.9 118.6 61 120.7V131.6C60.2 130.2 57.8 128.4 55.4 127.5C53.1 126.6 50.8 126.2 48.3 126.2C45.8 126.2 43.7 126.6 41.8 127.4C39.9 128.2 38.2 129.5 36.9 130.9C34.2 133.9 33 137.5 33 142.4C33 146.7 34.2 150 36.6 152.6C39 155.2 42.1 156.4 45.9 156.4C50.1 156.4 52.9 155.3 54.3 153.2C54.8 152.5 55 151.7 55 150.8V145.6L46.6 145.8H46.5L46.2 136.9H63.7L63.9 152.9Z" fill="#556E7C"/>
<path d="M204.9 118.8H214.2V147.4C214.2 153.1 212.5 157.6 209.1 161.1C205.9 164.3 201.8 166 196.9 166C191.5 166 187.2 164.6 183.9 161.8C180.2 158.7 178.3 154.1 178.3 148.2V118.8H187.7V148.6C187.7 151.5 188.7 153.8 190.4 155.4C192.1 156.9 194.6 157.5 196.7 157.5C198.8 157.5 201.1 156.7 202.5 155.2C204.4 153.2 205 150.8 204.9 148.4V118.8Z" fill="#556E7C"/>
<path d="M229.2 118.5C232.4 118.1 235.7 117.9 239.1 117.9C245.4 117.9 250.1 119.4 253.4 122.3C256.7 125.2 258.3 129.7 258.3 135.6C258.3 140.8 256.3 145.2 253.1 148C249.8 150.9 245.5 152.2 240.2 152.2C239.6 152.2 238.8 152.1 238.1 152.1V164.7H229.3V118.5H229.2ZM240.1 126C239.4 126 238.7 126 238 126.1V144.3C238.7 144.4 239.6 144.5 240.7 144.5C247.2 144.5 249.4 140.8 249.4 135.3C249.4 129.1 246.3 126 240.1 126Z" fill="#556E7C"/>
<path d="M100.8 144.8C101.3 144.5 101.8 144.3 102.3 143.9C106.3 141.3 108.5 137 108.5 133.3C108.5 128.3 107.3 124.7 104.1 121.7C100.8 118.8 93.9 117.9 87.6 117.9C84.2 117.9 79.7 118.1 76.7 118.5V164.6H85.7V147C85.7 147.1 87.5 147.1 88.1 147.1C89.4 147.1 90.8 147.1 92 147L99.9 164.7H110.5L100.8 144.8ZM97.1 138.1C96.3 138.7 95.2 139.1 94.2 139.4C93.2 139.7 91.5 139.8 90 139.8C88.5 139.8 87.7 139.7 85.7 139.6V126.5C87.7 126.4 88.3 126.3 89.4 126.3C92.5 126.3 95 126.7 96.6 127.6C98.3 128.6 99.2 130.3 99.2 132.8C99.2 135.3 98.7 136.8 97.1 138.1Z" fill="#556E7C"/>
</g>
<defs>
<clipPath id="clip0_114_3">
<rect width="465.5" height="166" fill="white"/>
</clipPath>
</defs>
</svg>
